<svg width="1440" height="900" viewBox="0 0 1440 900" fill="none" xmlns="http://www.w3.org/2000/svg">
<g clip-path="url(#clip0_154:21)">
<rect width="1440" height="900" fill="black"/>
<path d="M448.857 525.621C450.15 532.862 460.029 554.791 470.579 556.653M515.575 556.653C518.937 550.964 517.903 528.724 502.387 524.07C486.871 519.415 481.167 514.76 477.288 507.002" stroke="white" stroke-width="7"/>
<path d="M521.006 505.451C524.497 515.924 550.486 517.631 560.571 528.725C570.656 539.819 569.622 545.534 570.656 548.895" stroke="white" stroke-width="7"/>
<path d="M113.401 -185C93.7474 -122.937 95.9658 44.6032 93.2734 102.041C90.946 151.692 85.4723 170.311 73.0597 193.584C60.6471 216.858 38.1494 296.854 113.401 351.845C155.293 382.459 156.845 382.877 202.616 427.872C248.388 472.868 285.344 529.727 377.987 548.895C422.983 558.205 497.577 560.066 555.916 551.998C589.275 547.385 628.452 550.059 628.452 550.059" stroke="white" stroke-width="7"/>
<path d="M609.33 516.355C621.52 500.99 647.423 504.545 648.946 527.11C650.47 549.675 624.567 556.303 612.378 542.475C600.188 528.647 587.696 507.002 558.746 507.002" stroke="white" stroke-width="7"/>
<path d="M374.884 -167.933C374.884 -84.1476 365.839 27.0468 353.895 112.903C345.045 176.517 329.888 220.737 371.005 286.679C393.829 323.284 423.759 359.603 445.481 387.531C462.858 409.874 553.013 477.264 599.043 504.675" stroke="white" stroke-width="7"/>
<path d="M835.847 525.621C837.14 532.862 847.018 554.791 857.569 556.653M902.564 556.653C905.926 550.964 904.892 528.724 889.376 524.07C873.86 519.415 868.156 514.76 864.278 507.002" stroke="white" stroke-width="7"/>
<path d="M907.995 505.451C911.486 515.924 937.475 517.631 947.56 528.725C957.646 539.819 956.611 545.534 957.646 548.895" stroke="white" stroke-width="7"/>
<path d="M500.39 -185C480.737 -122.937 482.955 44.6032 480.263 102.041C477.935 151.692 472.462 170.311 460.049 193.584C447.636 216.858 425.139 296.854 500.39 351.845C542.283 382.459 543.834 382.877 589.606 427.872C635.377 472.868 672.333 529.727 764.977 548.895C809.972 558.205 884.566 560.066 942.905 551.998C976.264 547.385 1015.44 550.059 1015.44 550.059" stroke="white" stroke-width="7"/>
<path d="M996.32 516.355C1008.51 500.99 1034.41 504.545 1035.94 527.11C1037.46 549.675 1011.56 556.303 999.367 542.475C987.178 528.647 974.685 507.002 945.735 507.002" stroke="white" stroke-width="7"/>
<path d="M757.994 -167.933C757.994 -84.1475 751.277 27.0468 739.332 112.903C730.482 176.517 716.878 220.737 757.994 286.679C780.819 323.284 810.748 359.603 832.47 387.531C849.848 409.874 940.131 478.04 986.162 505.451" stroke="white" stroke-width="7"/>
</g>
<defs>
<clipPath id="clip0_154:21">
<rect width="1440" height="900" fill="white"/>
</clipPath>
</defs>
</svg>
