<svg width="1440" height="900" viewBox="0 0 1440 900" fill="none" xmlns="http://www.w3.org/2000/svg">
<g clip-path="url(#clip0_154:20)">
<rect width="1440" height="900" fill="white"/>
<path d="M1376 -16C1350.01 11.573 1262.9 126.65 1246.68 150.373C1201.46 164.42 1121.96 194.074 1054.88 228.41C969.137 272.295 805.37 328.297 711.806 340.783C618.241 353.269 562.102 353.269 526.236 365.755C490.369 378.241 417.077 434.427 370.295 456.278C323.512 478.128 228.388 521.829 198.759 546.801C169.131 571.772 84.9223 659.174 66.2094 671.66C47.4965 684.145 74.0065 702.874 106.754 682.585C139.502 662.295 148.858 643.566 169.131 629.52C185.348 618.282 207.364 604.288 221.399 595.964M1276.85 391.341C1280.84 372.021 1305.69 363.486 1317.27 383.065C1328.84 402.644 1308.6 420.326 1291.4 413.424C1274.2 406.522 1266.2 400.872 1238.14 418.82C1197.33 443.792 1088.9 495.921 981.612 504.661C847.503 515.586 665.052 493.736 632.304 520.268C599.556 546.801 537.18 618.594 457.65 626.398C437.897 644.607 395.897 685.394 385.917 702.874C373.442 724.725 342.254 771.547 323.541 798.079C304.828 824.612 281.437 802.762 292.352 782.472C303.268 762.182 326.659 707.557 334.457 677.903C342.254 648.248 385.917 612.352 385.917 612.352C382.018 607.669 363.305 613.132 357.068 617.814C338.355 631.861 306.387 652.931 292.352 677.903C278.318 702.874 245.57 757.5 231.535 798.079C217.501 838.659 190.991 823.051 195.669 798.079C200.347 773.108 219.06 693.51 231.535 668.538C244.011 643.566 264.283 627.959 278.318 602.987M234.654 579.576C209.704 611.311 163.545 670.723 153.565 685.706C141.089 704.435 116.139 766.865 113.02 780.911C109.901 794.958 142.649 798.079 164.481 746.575C186.312 695.071 192.55 693.51 206.585 677.903C217.812 665.417 240.372 647.728 250.248 640.445M1543 304.886C1471.27 320.494 1401.09 348.587 1354.31 375.119C1321.75 393.587 1322.08 393.848 1320 398.53" stroke="black" stroke-width="7"/>
</g>
<defs>
<clipPath id="clip0_154:20">
<rect width="1440" height="900" fill="white"/>
</clipPath>
</defs>
</svg>
