<svg width="38" height="70" viewBox="0 0 38 70" fill="none" xmlns="http://www.w3.org/2000/svg">
<path d="M19 4L20.8678 1.9816L18.9425 0.199985L17.072 2.03906L19 4ZM19 66L17.0754 67.9643L19 69.85L20.9246 67.9643L19 66ZM16.25 4V66H21.75V4H16.25ZM20.9246 64.0357L3.92461 47.379L0.07539 51.3076L17.0754 67.9643L20.9246 64.0357ZM20.9246 67.9643L37.9246 51.3076L34.0754 47.379L17.0754 64.0357L20.9246 67.9643ZM37.8678 17.7129L20.8678 1.9816L17.1322 6.0184L34.1322 21.7497L37.8678 17.7129ZM4.92801 21.6923L12.928 13.8266L9.07199 9.90473L1.07199 17.7704L4.92801 21.6923ZM12.928 13.8266L20.928 5.96094L17.072 2.03906L9.07199 9.90473L12.928 13.8266Z" fill="white"/>
</svg>
