<svg width="1440" height="900" viewBox="0 0 1440 900" fill="none" xmlns="http://www.w3.org/2000/svg">
<g clip-path="url(#clip0_294:2)">
<rect width="1440" height="900" fill="black"/>
<path d="M587 223.993C617 261.993 645.778 308.764 644.575 362.575C642.575 451.993 601.849 502.407 587 528.128M285 223.993C295 289.993 124.775 449.993 92.7751 587.993C77.007 655.993 103.963 691.633 135 727.993C227.095 835.884 476.402 807.993 644.575 795.993C869.567 779.939 1103 762.981 1201 771.884C1299 780.787 1339 791.993 1439 827.993M1496.82 676.915C1455.24 673.948 1392.46 667.864 1339 655.993C1285.54 644.122 1268.09 609.154 1179 623.993C1089.91 638.832 956.313 596.786 816.732 564.14C705.067 538.024 558.072 517.664 476.402 529.536C462.923 531.495 425.952 536.669 406.795 543.752C387.639 550.835 369.88 541.433 373.678 520.663C377.476 499.894 407.248 498.329 413.655 520.015M-19 220.993C68 237.586 106.224 241.211 196 181.586C406.795 41.5858 540.846 105.993 642.575 255.993C678.464 308.912 719 363.653 767 401.993C859 475.478 934 473.434 1053 487.993C1185.39 504.19 1273 512.676 1359.74 521.468C1420.02 527.577 1473.5 537.966 1523 550.798M88.7751 635.993C46.2079 649.843 -5 655.993 -101 655.993" stroke="white" stroke-width="5.5"/>
</g>
<defs>
<clipPath id="clip0_294:2">
<rect width="1440" height="900" fill="white"/>
</clipPath>
</defs>
</svg>
