<svg width="1440" height="900" viewBox="0 0 1440 900" fill="none" xmlns="http://www.w3.org/2000/svg">
<g clip-path="url(#clip0_368:48)">
<rect width="1440" height="900" fill="black"/>
<path d="M588 223.993C618 261.993 646.778 308.764 645.575 362.575C643.575 451.993 602.849 502.407 588 528.128M286 223.993C296 289.993 125.775 449.993 93.7751 587.993C78.007 655.993 104.963 691.633 136 727.993C228.095 835.884 477.402 807.993 645.575 795.993C870.567 779.939 1104 762.981 1202 771.884C1300 780.787 1340 791.993 1440 827.993M1497.82 676.915C1456.24 673.948 1393.46 667.864 1340 655.993C1286.54 644.122 1269.09 609.154 1180 623.993C1090.91 638.832 957.313 596.786 817.732 564.14C706.067 538.024 559.072 517.664 477.402 529.536C463.923 531.495 426.952 536.669 407.795 543.752C388.639 550.835 370.88 541.433 374.678 520.663C378.476 499.894 408.248 498.329 414.655 520.015M-18.5 207.086C29.4607 216.233 56 225.823 98.0093 223.993C126.911 222.734 156.715 208.341 197 181.586C407.795 41.5858 541.846 105.993 643.575 255.993C679.464 308.912 720 363.653 768 401.993C860 475.478 935 473.434 1054 487.993C1186.39 504.19 1274 512.676 1360.74 521.468C1421.02 527.577 1474.5 537.966 1524 550.798M89.7751 635.993C47.2079 649.843 -4 655.993 -100 655.993" stroke="white" stroke-width="5.5"/>
</g>
<defs>
<clipPath id="clip0_368:48">
<rect width="1440" height="900" fill="white"/>
</clipPath>
</defs>
</svg>
