<svg width="1440" height="900" viewBox="0 0 1440 900" fill="none" xmlns="http://www.w3.org/2000/svg">
<g clip-path="url(#clip0_154:17)">
<rect width="1440" height="900" fill="white"/>
<path d="M98.2563 901.137V724.57H350.601V901.137" stroke="black" stroke-width="5.5"/>
<path d="M369.729 789.078C375.615 796.435 388.121 794.733 388.857 783.928C389.593 773.124 377.086 769.95 371.2 776.571C365.315 783.193 364.579 781.721 350.601 781.721" stroke="black" stroke-width="5.5"/>
<path d="M79.1593 789.078C73.2737 796.435 60.7668 794.733 60.0311 783.928C59.2954 773.124 71.8023 769.95 77.6879 776.571C83.5734 783.193 84.3092 781.721 98.2875 781.721" stroke="black" stroke-width="5.5"/>
<path d="M463.899 901.138V724.57H716.244V901.138" stroke="black" stroke-width="5.5"/>
<path d="M735.372 789.078C741.258 796.435 753.764 794.733 754.5 783.928C755.236 773.124 742.729 769.95 736.843 776.571C730.958 783.193 730.222 781.721 716.244 781.721" stroke="black" stroke-width="5.5"/>
<path d="M444.802 789.078C438.916 796.435 426.409 794.733 425.674 783.928C424.938 773.124 437.445 769.95 443.33 776.571C449.216 783.193 449.952 781.721 463.93 781.721" stroke="black" stroke-width="5.5"/>
<path d="M1081.89 901.138V724.57H1334.23V901.138" stroke="black" stroke-width="5.5"/>
<path d="M1353.36 789.078C1359.24 796.435 1371.75 794.733 1372.49 783.928C1373.22 773.124 1360.72 769.95 1354.83 776.571C1348.95 783.193 1348.21 781.721 1334.23 781.721" stroke="black" stroke-width="5.5"/>
<path d="M1062.79 789.078C1056.9 796.435 1044.4 794.733 1043.66 783.928C1042.93 773.124 1055.43 769.95 1061.32 776.571C1067.2 783.193 1067.94 781.721 1081.92 781.721" stroke="black" stroke-width="5.5"/>
<path d="M578 272C578 462 541.052 533.653 427.793 582.211C404.17 592.339 311.593 630.77 291 722" stroke="black" stroke-width="5.5"/>
<path d="M548.5 724.5C548.5 724.5 511.122 648.104 570.219 577.557C629.316 507.01 644 432 644 272" stroke="black" stroke-width="5.5"/>
<path d="M218.239 426.643C210.882 420.757 212.585 408.25 223.389 407.514C234.194 406.779 237.367 419.286 230.746 425.171C224.125 431.057 230.746 441.326 238.407 474.8H239.075C244.598 474.8 249.075 479.277 249.075 484.8V531.081H249.742C255.265 531.081 259.742 535.558 259.742 541.081V556.462V556.462C268.681 556.462 275.928 563.709 275.928 572.648V606.49H276.595C282.118 606.49 286.595 610.967 286.595 616.49V620.396C286.595 625.775 282.341 630.19 276.966 630.389L266.732 630.768C273.353 633.466 283.138 640.111 286.963 648.057C289.174 652.648 291.623 658.638 291.088 669.392C290.553 680.147 290.642 693.264 290.642 706.913C290.642 727.218 290.642 837.99 290.642 890.838C291.132 900.279 288.876 918.206 275.928 923.208C269.395 925.733 259.165 926.24 249.075 925.856M249.075 925.856C239.166 925.479 229.393 926.448 223.389 925.416L249.075 925.856Z" stroke="black" stroke-width="5.5"/>
<path d="M198.465 925.856C188.375 926.24 178.145 925.733 171.612 923.208C158.663 918.206 156.407 900.279 156.898 890.838C156.898 837.99 156.898 727.218 156.898 706.913C156.898 693.264 156.986 680.147 156.452 669.392C155.917 658.638 158.366 652.648 160.576 648.057C164.402 640.111 174.922 633.466 181.544 630.768L170.587 630.377C165.207 630.185 160.944 625.767 160.944 620.383V616.49C160.944 610.967 165.421 606.49 170.944 606.49H171.612V572.648C171.612 563.709 178.858 556.462 187.797 556.462V556.462V541.081C187.797 535.558 192.274 531.081 197.797 531.081H198.465V484.8C198.465 479.277 202.942 474.8 208.465 474.8H209.132C213.75 454.623 217.99 442.877 219.18 435.44M198.465 925.856C208.373 925.479 218.146 926.448 224.15 925.416L198.465 925.856Z" stroke="black" stroke-width="5.5"/>
<path d="M177.04 631H272.164M173 606.717H274M186.589 556.679H261.145M197.607 531.292H250.495M207.891 475H240.211" stroke="black" stroke-width="5.5"/>
<path d="M1161.13 789C1154.32 798.208 1154.38 801.544 1138.55 819.566C1118.76 842.093 1103.45 860.301 1096.05 851.179C1088.65 842.057 1105.36 814.892 1119.27 795.601C1130.41 780.169 1165.48 712.918 1181.62 681.221C1172.61 689.448 1153.37 708.311 1148.54 717.943C1142.5 729.984 1125.48 764.717 1114.99 760.998C1104.49 757.278 1102.96 744.919 1123.7 699.688C1144.44 654.456 1180 607.388 1202.25 594.594C1220.05 584.359 1243.47 552.682 1252.96 538.123C1262.32 539.472 1283.8 546.099 1294.77 561.805C1307.45 579.946 1306.27 584.419 1325.77 597.33C1325.77 597.33 1335.66 602.461 1343.72 602.461C1350.42 602.461 1349.68 597.877 1357.41 597.33C1365.13 596.783 1370.13 602.38 1369.02 610.666C1367.91 618.951 1356.89 623.847 1348.1 615.254M1147.78 808.92C1132.06 832.199 1101.63 886.62 1119.39 897.854C1138.55 909.966 1153.48 859.125 1159.13 849.015C1163.64 840.926 1176.65 821.469 1189 803C1179.66 822.142 1172.21 845.261 1165.83 862.615C1157.85 884.307 1154.5 897.854 1165.94 901.067C1186.08 906.729 1203.06 844.201 1207.63 830.46C1211.28 819.467 1219.51 809.333 1226 801C1223.13 813.276 1222.94 833.105 1215.48 848.309C1203.64 872.445 1207.81 889.04 1220.07 885.385C1232.34 881.73 1245.84 830.119 1271.85 771.687C1297.85 713.256 1299.75 700.472 1303.17 677.462C1306.59 654.451 1311.39 639.86 1320.35 627.63C1329.32 615.4 1342.27 611.504 1347.29 608.726" stroke="black" stroke-width="5.5"/>
<path d="M706 270C706 400 724 476 773.458 530.71C809.874 570.994 853.015 583.683 934.046 596.926C1015.08 610.169 1090.37 638.127 1111 722" stroke="black" stroke-width="5.5"/>
</g>
<defs>
<clipPath id="clip0_154:17">
<rect width="1440" height="900" fill="white"/>
</clipPath>
</defs>
</svg>
